<svg width="108" height="24" viewBox="0 0 108 24" fill="none" xmlns="http://www.w3.org/2000/svg">
<g clip-path="url(#clip0_4534_235)">
<path d="M17.8292 9.03392C17.4243 8.35573 16.6751 7.89535 15.6046 7.66269L9.29294 6.28651C8.80956 6.18008 8.55142 6.06622 8.45525 5.91276C8.39958 5.82118 8.39199 5.7098 8.42742 5.56871L8.72352 4.77172H19.1502L20.5776 0.492188H9.34608C7.57961 0.492188 6.3522 0.707525 5.48668 1.1679C4.44907 1.71986 3.75564 2.59606 3.36591 3.84106L2.79649 5.57614C2.49026 6.54887 2.60668 7.59338 3.10777 8.44236C3.60127 9.27648 4.40858 9.83834 5.44112 10.0685L11.477 11.3853C11.8212 11.4571 12.0464 11.5685 12.1451 11.7195C12.2058 11.811 12.2185 11.9199 12.1906 12.0412L11.8895 12.9298H1.40963L0 17.2069H10.7456C13.1296 17.2069 14.3772 17.0856 15.468 16.3703C16.5942 15.6277 17.0396 14.4372 17.4673 13.0709L17.976 11.3952C18.2594 10.4844 18.2088 9.67003 17.8292 9.03392Z" fill="#29424E"/>
<path d="M71.4212 7.7717C70.9328 7.11826 70.0647 6.78906 68.8424 6.78906H61.445C58.8484 6.78906 57.1857 7.8014 56.3607 9.883L50.9297 23.5062H56.6568L58.3828 19.1227H63.1482L61.7082 23.5062H67.3214L71.6211 10.4028C71.9679 9.32361 71.8995 8.41276 71.4162 7.7717H71.4212ZM64.5451 14.9422H60.0202L61.2046 11.9052C61.445 11.279 61.6652 11.0562 62.4092 11.0562H65.7979L64.5451 14.9422Z" fill="#29424E"/>
<path d="M98.4648 11.0735H106.561L108.001 6.78906H97.1438C94.6231 6.78906 93.2388 7.67269 92.51 9.74686L89.139 20.0583C88.8176 20.9939 88.8986 21.8578 89.3642 22.4939C89.8501 23.1547 90.6979 23.5013 91.8165 23.5013H99.2974C101.082 23.5013 101.833 23.3948 102.641 23.0236C103.617 22.578 104.172 21.8701 104.622 20.5063L106.267 15.4793C106.51 14.7467 106.472 14.1601 106.156 13.7343C105.832 13.2987 105.235 13.0685 104.43 13.0685H99.1076L97.7537 17.1971H100.087L99.5606 18.8084C99.4392 19.1475 99.3329 19.2118 98.8951 19.2118H95.0255L97.4956 11.6923C97.6702 11.1651 97.9486 11.0711 98.4623 11.0711L98.4648 11.0735Z" fill="#29424E"/>
<path d="M85.4028 6.78906L82.7101 14.9991L80.5893 7.83605C80.3945 7.15043 79.8579 6.78906 79.0405 6.78906H75.3254L69.8918 23.3552L69.8438 23.4988H75.457L78.1143 15.4026L80.2856 22.4988C80.4021 22.8726 80.7488 23.4988 81.7585 23.4988H85.537L91.0186 6.78906H85.4054H85.4028Z" fill="#29424E"/>
<path d="M53.4486 7.66516C53.0285 7.10083 52.2237 6.79144 51.1861 6.79144H27.1465L27.6628 5.20487C27.7918 4.79152 28.0829 4.77172 28.5865 4.77172H36.7785L38.1806 0.492188H28.4675C26.7011 0.492188 25.4737 0.707525 24.6081 1.1679C23.5705 1.71986 22.8771 2.59606 22.4874 3.84106L18.1016 17.1994H32.7825L34.187 12.9323H25.1447L25.8052 10.915H47.6405L47.1091 12.5239C47.0205 12.7887 46.8889 12.9323 46.4663 12.9323H36.4673L33.0027 23.5061H44.267C46.4536 23.5061 47.4533 23.3551 48.3795 22.8824C49.1641 22.4839 49.6829 21.7834 50.0574 20.6151L50.8824 18.0905C51.1482 17.3182 51.3456 16.4396 50.7964 15.7836L50.2017 15.1327L51.1355 14.499C52.125 13.8803 52.4034 13.5139 52.7856 12.3234L53.6258 9.75419C53.9016 8.90274 53.8409 8.17999 53.4512 7.66021L53.4486 7.66516ZM45.1123 18.6127C44.9124 19.1845 44.6087 19.2142 44.1304 19.2142H40.023L40.681 17.2044H45.5754L45.1123 18.6127Z" fill="#29424E"/>
</g>
<defs>
<clipPath id="clip0_4534_235">
<rect width="108" height="23.0164" fill="white" transform="translate(0 0.492188)"/>
</clipPath>
</defs>
</svg>
