<svg width="125" height="131" viewBox="0 0 125 131" fill="none" xmlns="http://www.w3.org/2000/svg">
<path d="M101.32 63.05L78.08 49.64L65.03 24.88C64.36 23.54 63.45 23 62.36 23C61.27 23 60.36 23.55 59.69 24.88L46.64 49.64L23.58 62.93C22.85 63.29 22 64.39 22 65.48C22 66.57 22.55 67.42 23.4 67.91L46.64 81.32L59.69 106.08C60.36 107.42 61.27 107.96 62.36 107.96C63.45 107.96 64.36 107.41 65.03 106.08L78.08 81.32L101.14 68.03C101.87 67.67 102.72 66.57 102.72 65.48C102.72 64.39 102.17 63.54 101.32 63.05ZM30.2 61.31C31.01 60.84 43.04 53.94 46.67 51.82C50.72 49.44 55.94 45.97 59.82 42.74C62.61 40.42 63.83 38.21 64.71 36.31C66.11 33.3 66 31.1 65.94 30.52L76.24 50.08L30.2 61.31ZM78.06 79.13C74.01 81.51 68.79 84.98 64.91 88.21C62.12 90.53 60.9 92.74 60.02 94.64C58.62 97.65 58.73 99.85 58.79 100.43L48.49 80.87L94.53 69.64C93.72 70.11 81.69 77.01 78.06 79.13Z" fill="#00E600"/>
</svg>
